<?xml version="1.0" encoding="UTF-8"?>
<svg id="Layer_1" xmlns="http://www.w3.org/2000/svg" version="1.1" viewBox="0 0 617 516">
  <!-- Generator: Adobe Illustrator 29.1.0, SVG Export Plug-In . SVG Version: 2.1.0 Build 142)  -->
  <defs>
    <style>
      .st0 {
        stroke: #fff;
        stroke-miterlimit: 10;
        stroke-width: .8px;
        fill: #fff;
      }
    </style>
  </defs>
  <path class="st0" d="M539,366l-182-37.5-23,29.5c9.3,1.5,19,1.1,28.5,2,11.7,1.1,25.1,2.9,36.5,5.5,19.7,4.4,31,15,50.4,18.4l75.5-17.8-72,18.5,76,20-221.5,81.5c-64-23.6-127.7-48.1-192-71.1-9.4-3.3-18.7-6.9-28.5-9l77-20-76.8-19.8-12.2,1.3,187-40.5c-23.7-34.1-53-73.8-59.7-115.8-19-120.1,131.8-170.7,195.5-80.5,45.2,63.9-1.2,141.7-39.8,195.8l181,39.5ZM298.8,103.3c-65,5.2-93.5,65.5-73.8,124.2s53.8,91.5,85.5,130.5c46.4-55.9,134.1-165.8,59-231.9-19.3-17-45.1-24.8-70.7-22.7ZM287,358l-22.4-28.1-3.1-1-163.3,33.8-9.2,3.3,96,24c-4.5-13.2,10.3-18.1,20.2-21.3,25.9-8.2,54.9-8.6,81.8-10.7ZM410,385c-1.4-1.4-27.6-6.2-31.7-6.8-12.6-1.9-28.1-3.8-40.8-4.2s-14.8-.6-17.8.2-7.6,9.8-10.2,9.6l-9.2-9.6c-27.8.4-60.4.4-87.1,8.5s-7.6,1.8-9.2,4.3c50.5,13.5,104.4,16.3,156.4,9.9,14.7-1.8,34.4-4.7,48.2-9.8,1.1-.4,2.9-.5,1.4-2.1ZM445,386c.3-.4,1.2-1.8,1-2l-17-4,1,9c5.1-.7,9.8-2.5,15-3-1.9,2.5-11.7,3-15,4.5s-9.3,7.9-17.1,10.9c-30.9,12.1-65,11.9-97.5,15.5-1.5.2-3.1.2-3.5,2l90.6,26.9,6.7.9c35.1-12.7,69.9-26.9,105.2-38.8,2.8-.9,5.6-1.6,8.5-2-.2-1.6-3.6-2.1-5-2.5-21.9-6.7-45.5-10.2-67.2-17.8-1.9-.3-3.9.1-5.8.3ZM185.7,391.3c-13.6-8-39.8.9-54.5,4.4-11.7,2.8-24.6,5.6-36,9s-2.5-.2-2.2,1.3l101.7,36.8c17.4-1.6,35.1-7.3,52.3-11.3,19-4.3,37.9-8.9,57-12.5l-7.5-2c-33.9-3.5-80.1-3.9-108.9-23.2-1-.7-1.4-2.2-1.9-2.5ZM403,447l-94.6-28-107.4,25.5,106.5,40.4,94.2-35.7,1.3-2.2Z"/>
  <polygon class="st0" points="18 364 18 500 180.5 500 182 501.5 182 516 1 516 1 364 18 364"/>
  <polygon class="st0" points="617 0 617 134 601.5 134 600 132.5 600 16 436 16 436 0 617 0"/>
  <path class="st0" d="M44,16V0h136.5c2.5,3.6,2.4,12.5,0,16H44Z"/>
  <polygon class="st0" points="563 500 563 516 436 516 436 501.5 437.5 500 563 500"/>
  <rect class="st0" x="600.5" y="364" width="15.5" height="109"/>
  <rect class="st0" x="1" y="39" width="17" height="95"/>
  <polygon class="st0" points="19 0 19 22 1.5 22 0 20.5 0 1.5 1.5 0 19 0"/>
  <polygon class="st0" points="610 516 590 516 590 496 608.5 496 610 497.5 610 516"/>
  <path class="st0" d="M300.8,138.3c70.9-8.5,79.7,93.1,14.6,99.6-69.8,7-75.4-92.3-14.6-99.6ZM301.7,156.2c-11.1,1.7-21.4,11.7-24.8,22.2-10.1,31.5,28.3,54.6,53.5,34.5,27.2-21.7,6.1-62.2-28.7-56.7Z"/>
</svg>
